<svg width="1920" height="1080" viewBox="0 0 1920 1080" fill="none" xmlns="http://www.w3.org/2000/svg">
<rect width="1920" height="1080" fill="url(#paint0_linear)"/>
<mask id="mask0" style="mask-type:alpha" maskUnits="userSpaceOnUse" x="0" y="0" width="1920" height="1080">
<rect width="1920" height="1080" fill="white"/>
</mask>
<g mask="url(#mask0)">
<path fill-rule="evenodd" clip-rule="evenodd" d="M119.624 624.824L420.841 928.887C427.212 935.318 427.212 945.745 420.841 952.176C414.47 958.608 404.14 958.608 397.769 952.176L96.5518 648.113C90.1807 641.682 90.1807 631.255 96.5518 624.824C102.923 618.392 113.253 618.392 119.624 624.824Z" fill="#00D19C" fill-opacity="0.1"/>
<path fill-rule="evenodd" clip-rule="evenodd" d="M199.615 722.208L438.514 961.107C449.458 972.052 449.458 989.796 438.514 1000.74C427.569 1011.68 409.825 1011.68 398.881 1000.74L159.982 761.841C149.037 750.897 149.037 733.153 159.982 722.208C170.926 711.264 188.67 711.264 199.615 722.208Z" fill="white" fill-opacity="0.1"/>
<path fill-rule="evenodd" clip-rule="evenodd" d="M194.921 777.104L453.636 1035.82C459.108 1041.29 459.108 1050.16 453.636 1055.64C448.164 1061.11 439.292 1061.11 433.82 1055.64L175.104 796.921C169.632 791.448 169.632 782.576 175.104 777.104C180.576 771.632 189.448 771.632 194.921 777.104Z" fill="#00D19C" fill-opacity="0.3"/>
<circle cx="1307.5" cy="121.5" r="24.5" fill="white" fill-opacity="0.1"/>
<circle cx="327" cy="178" r="17" fill="white" fill-opacity="0.2"/>
<rect x="1228.93" y="482.127" width="506" height="72" rx="36" transform="rotate(45 1228.93 482.127)" fill="white" fill-opacity="0.1"/>
<path fill-rule="evenodd" clip-rule="evenodd" d="M1147.48 451.583C1161.54 437.524 1184.33 437.524 1198.39 451.583L1254.51 507.706C1268.57 521.765 1268.57 544.559 1254.51 558.618C1240.45 572.677 1217.66 572.677 1203.6 558.618L1147.48 502.495C1133.42 488.436 1133.42 465.642 1147.48 451.583Z" fill="white" fill-opacity="0.1"/>
<path fill-rule="evenodd" clip-rule="evenodd" d="M1131.46 560.456C1145.51 546.397 1168.31 546.397 1182.37 560.456L1588 966.088C1602.06 980.147 1602.06 1002.94 1588 1017C1573.94 1031.06 1551.15 1031.06 1537.09 1017L1131.46 611.368C1117.4 597.309 1117.4 574.515 1131.46 560.456Z" fill="white" fill-opacity="0.1"/>
<rect x="-205.481" y="-234.43" width="506" height="68" rx="34" transform="rotate(45 -205.481 -234.43)" fill="white" fill-opacity="0.2"/>
<path fill-rule="evenodd" clip-rule="evenodd" d="M973.678 86.6777C983.441 76.9146 999.27 76.9146 1009.03 86.6777L1061.15 138.791C1070.91 148.555 1070.91 164.384 1061.15 174.147C1051.38 183.91 1035.55 183.91 1025.79 174.147L973.678 122.033C963.915 112.27 963.915 96.4408 973.678 86.6777Z" fill="white" fill-opacity="0.08"/>
<rect x="1269.11" y="492" width="506" height="44" rx="22" transform="rotate(45 1269.11 492)" fill="#00D19C" fill-opacity="0.2"/>
<rect x="1317.46" y="659" width="506" height="36" rx="18" transform="rotate(45 1317.46 659)" fill="#0099FF" fill-opacity="0.4"/>
<rect x="-84.2803" y="-138.43" width="518.33" height="40" rx="20" transform="rotate(45 -84.2803 -138.43)" fill="white" fill-opacity="0.2"/>
<path fill-rule="evenodd" clip-rule="evenodd" d="M240.142 214.142C247.953 206.332 260.616 206.332 268.426 214.142L301.698 247.414C309.508 255.224 309.508 267.887 301.698 275.698C293.887 283.508 281.224 283.508 273.413 275.698L240.142 242.426C232.332 234.616 232.332 221.953 240.142 214.142Z" fill="white" fill-opacity="0.2"/>
<path fill-rule="evenodd" clip-rule="evenodd" d="M174.072 456.072C178.172 451.971 184.82 451.971 188.921 456.072L328.928 596.079C333.029 600.179 333.029 606.827 328.928 610.928C324.828 615.028 318.179 615.028 314.079 610.928L174.072 470.921C169.971 466.82 169.971 460.172 174.072 456.072Z" fill="#0099FF" fill-opacity="0.2"/>
<path fill-rule="evenodd" clip-rule="evenodd" d="M243.113 507.114C245.261 504.966 248.744 504.966 250.892 507.114L349.886 606.109C352.034 608.257 352.034 611.739 349.886 613.887C347.739 616.035 344.256 616.035 342.108 613.887L243.113 514.892C240.965 512.744 240.965 509.262 243.113 507.114Z" fill="white" fill-opacity="0.2"/>
<path fill-rule="evenodd" clip-rule="evenodd" d="M1032.66 455.657C1035.78 452.533 1040.85 452.533 1043.97 455.657L1253.72 665.408C1256.85 668.532 1256.85 673.597 1253.72 676.722C1250.6 679.846 1245.53 679.846 1242.41 676.722L1032.66 466.971C1029.53 463.846 1029.53 458.781 1032.66 455.657Z" fill="#C86DD7" fill-opacity="0.1"/>
<path fill-rule="evenodd" clip-rule="evenodd" d="M1101.89 513.889C1104.04 511.741 1107.52 511.741 1109.67 513.889L1322.95 727.176C1325.1 729.323 1325.1 732.806 1322.95 734.954C1320.81 737.102 1317.32 737.102 1315.18 734.954L1101.89 521.667C1099.74 519.519 1099.74 516.037 1101.89 513.889Z" fill="white" fill-opacity="0.2"/>
<circle cx="269" cy="566" r="15" fill="white" fill-opacity="0.2"/>
<circle cx="1312.5" cy="803.5" r="20.5" fill="white" fill-opacity="0.2"/>
<path fill-rule="evenodd" clip-rule="evenodd" d="M712.589 -173.978C722.352 -183.741 738.181 -183.741 747.944 -173.978L1007.41 85.4894C1017.17 95.2525 1017.17 111.082 1007.41 120.845C997.648 130.608 981.819 130.608 972.056 120.845L712.589 -138.622C702.826 -148.385 702.826 -164.214 712.589 -173.978Z" fill="#C86DD7" fill-opacity="0.05"/>
</g>
<defs>
<linearGradient id="paint0_linear" x1="1308.62" y1="1085.29" x2="1557.88" y2="-14.8189" gradientUnits="userSpaceOnUse">
<stop stop-color="#0099FF"/>
<stop offset="0.565068" stop-color="#0099FF"/>
<stop offset="1" stop-color="#00D19C"/>
</linearGradient>
</defs>
</svg>
