<svg width="254" height="116" viewBox="0 0 254 116" fill="none" xmlns="http://www.w3.org/2000/svg">
<g clip-path="url(#clip0_93_19034)">
<path d="M76.297 59.7182C76.2064 61.8483 76.9303 63.9342 78.3251 65.5613C78.8973 66.2911 79.6285 66.8845 80.4644 67.2973C81.3003 67.7102 82.2195 67.9319 83.154 67.9462C84.119 67.9289 85.069 67.707 85.9397 67.2956C86.8103 66.8841 87.5812 66.2926 88.2003 65.5613C89.6589 63.9734 90.4302 61.8846 90.3492 59.7421C90.4219 57.5661 89.6733 55.441 88.2486 53.7798C87.6452 53.0307 86.8775 52.4269 86.0033 52.0137C85.1292 51.6006 84.1714 51.389 83.2023 51.3949C82.2669 51.4039 81.3458 51.6234 80.509 52.0366C79.6723 52.4499 78.942 53.046 78.3734 53.7798C76.9829 55.4558 76.2615 57.5767 76.3453 59.7421L76.297 59.7182ZM85.3271 44.5025C87.1133 44.5002 88.8799 44.8708 90.511 45.5901C92.1421 46.3093 93.6009 47.361 94.7917 48.6761C96.1539 50.1152 97.2137 51.8067 97.91 53.6529C98.6062 55.4991 98.925 57.4633 98.848 59.432C98.9692 63.4961 97.4691 67.4446 94.671 70.4265C93.5125 71.7924 92.0695 72.8957 90.4404 73.6612C88.8113 74.4267 87.0344 74.8364 85.2305 74.8624C83.5275 74.8823 81.8441 74.5011 80.32 73.7504C78.7958 72.9998 77.4747 71.9012 76.466 70.5457V74.5047H68.1361V33.4841H76.466V48.2706C77.571 47.0368 78.9382 46.0592 80.47 45.4078C82.0018 44.7564 83.6603 44.4473 85.3271 44.5025Z" fill="#005EB8"/>
<path d="M120.071 52.6828C118.893 51.7177 117.4 51.2091 115.87 51.2518C114.25 51.2484 112.673 51.7675 111.379 52.7305C110.709 53.188 110.147 53.7827 109.73 54.474C109.313 55.1654 109.052 55.9372 108.965 56.7371H122.027C121.987 55.965 121.792 55.2086 121.452 54.5123C121.112 53.816 120.634 53.194 120.047 52.6828H120.071ZM128.015 70.1404C126.457 71.6643 124.61 72.87 122.58 73.6884C120.55 74.5069 118.377 74.9221 116.184 74.9102C112.045 75.0489 108.018 73.5659 104.981 70.7843C103.488 69.3517 102.32 67.6223 101.554 65.7106C100.788 63.7988 100.442 61.7482 100.538 59.6944C100.444 57.6416 100.798 55.5928 101.578 53.6874C102.357 51.782 103.542 50.0647 105.053 48.6523C107.934 45.964 111.763 44.4922 115.725 44.5502C119.54 44.4485 123.256 45.7488 126.156 48.1991C127.594 49.4529 128.728 51.0112 129.472 52.7579C130.216 54.5046 130.552 56.3948 130.453 58.2874V62.6517H108.723C108.832 63.4357 109.103 64.1893 109.518 64.8661C109.933 65.5429 110.485 66.1285 111.138 66.5868C112.539 67.5976 114.231 68.1407 115.967 68.1371C117.313 68.1777 118.652 67.9398 119.9 67.4387C121.147 66.9376 122.275 66.1845 123.21 65.2275L128.015 70.1404Z" fill="#005EB8"/>
<path d="M203.032 26.1626C203.037 28.6033 202.308 30.9904 200.938 33.0217C199.569 35.053 197.619 36.6371 195.337 37.5733C193.055 38.5095 190.544 38.7557 188.12 38.2807C185.696 37.8057 183.47 36.6309 181.723 34.905C179.975 33.1792 178.786 30.9801 178.305 28.586C177.824 26.192 178.074 23.7109 179.021 21.4569C179.969 19.2029 181.573 17.2775 183.629 15.9245C185.686 14.5715 188.103 13.8518 190.573 13.8565C193.876 13.8628 197.041 15.1613 199.376 17.4678C201.711 19.7743 203.026 22.9008 203.032 26.1626Z" fill="#005EB8"/>
<path d="M176.328 10.9706C176.328 13.1404 175.677 15.2614 174.456 17.0655C173.236 18.8696 171.501 20.2758 169.472 21.1061C167.442 21.9365 165.209 22.1537 163.055 21.7304C160.9 21.3071 158.921 20.2623 157.368 18.728C155.815 17.1937 154.757 15.2389 154.328 13.1108C153.9 10.9828 154.12 8.77696 154.961 6.77235C155.801 4.76773 157.225 3.05434 159.051 1.84888C160.878 0.643411 163.025 0 165.222 0C168.167 0 170.992 1.15578 173.075 3.21317C175.158 5.27056 176.328 8.06103 176.328 10.9706Z" fill="#005EB8"/>
<path d="M147.958 11.8768C147.958 13.6173 147.436 15.3188 146.457 16.766C145.478 18.2132 144.086 19.3411 142.458 20.0072C140.83 20.6733 139.039 20.8476 137.311 20.508C135.582 20.1685 133.995 19.3303 132.749 18.0995C131.503 16.8688 130.654 15.3008 130.311 13.5937C129.967 11.8866 130.143 10.1171 130.818 8.50907C131.492 6.90102 132.634 5.52656 134.099 4.55956C135.564 3.59257 137.287 3.07642 139.049 3.07642C141.412 3.07642 143.678 4.0036 145.349 5.65398C147.02 7.30436 147.958 9.54276 147.958 11.8768Z" fill="#005EB8"/>
<path d="M127.073 22.7997C127.073 24.1299 126.674 25.4302 125.926 26.5362C125.177 27.6422 124.114 28.5042 122.87 29.0132C121.626 29.5223 120.257 29.6554 118.936 29.3959C117.615 29.1364 116.402 28.4959 115.45 27.5553C114.497 26.6148 113.849 25.4163 113.586 24.1117C113.324 22.8071 113.458 21.4549 113.974 20.226C114.489 18.9971 115.362 17.9467 116.482 17.2076C117.601 16.4686 118.918 16.0742 120.264 16.0742C122.07 16.0742 123.802 16.7828 125.079 18.0441C126.356 19.3053 127.073 21.016 127.073 22.7997Z" fill="#005EB8"/>
<path d="M132.192 45.3849H140.546V51.2518C141.131 49.282 142.383 47.5704 144.093 46.4028C145.802 45.2351 147.866 44.6822 149.938 44.8364V53.4697H149.503C143.95 53.4697 140.546 56.7848 140.546 63.7249V74.4808H132.192V45.3849Z" fill="#005EB8"/>
<path d="M43.074 85.9999C39.9673 85.9247 37.0096 84.6689 34.8166 82.4941L38.5831 76.4364C39.6995 77.6449 41.2512 78.3728 42.905 78.4636C43.3071 78.4564 43.7011 78.3501 44.051 78.1543C44.401 77.9586 44.6959 77.6796 44.909 77.3427C45.4351 76.6555 45.7229 75.8192 45.7298 74.9578C45.7298 74.1151 41.8909 64.1144 34.213 44.9556H43.074L50.3174 63.2955L57.5608 44.9556H66.446L52.587 79.656C51.8685 81.6034 50.5408 83.2741 48.7962 84.4259C47.0927 85.5371 45.0912 86.1186 43.0498 86.0953" fill="#005EB8"/>
<path d="M214.887 59.2175C214.887 62.2835 213.967 65.2806 212.242 67.8299C210.518 70.3792 208.067 72.3661 205.199 73.5394C202.331 74.7127 199.176 75.0198 196.131 74.4216C193.087 73.8235 190.291 72.347 188.096 70.179C185.901 68.011 184.406 65.2489 183.801 62.2418C183.195 59.2347 183.506 56.1178 184.694 53.2852C185.882 50.4526 187.893 48.0315 190.474 46.3282C193.055 44.6248 196.089 43.7156 199.193 43.7156C203.355 43.7156 207.347 45.3488 210.29 48.256C213.234 51.1632 214.887 55.1061 214.887 59.2175Z" fill="#005EB8"/>
<path d="M20.1606 66.8254C18.6846 66.8499 17.219 66.5771 15.8532 66.0235C14.4875 65.47 13.2501 64.6473 12.2169 63.6057C11.1134 62.4672 10.2555 61.1192 9.6952 59.6433C9.1349 58.1675 8.88388 56.5946 8.95748 55.0201C8.88525 53.4434 9.15605 51.8696 9.75164 50.4051C10.3472 48.9405 11.2538 47.619 12.4101 46.5297C14.6843 44.4629 17.6743 43.3362 20.7642 43.3817C23.6398 43.33 26.4397 44.2941 28.6596 46.1004L34.0921 40.162C30.1269 36.8379 25.0596 35.0753 19.8606 35.2117C14.6616 35.3481 9.69622 37.374 5.91524 40.9014C3.97319 42.7469 2.44359 44.9735 1.42482 47.4379C0.40605 49.9023 -0.0793674 52.55 -0.000220483 55.2108C-0.0795908 57.8348 0.39713 60.4461 1.39918 62.8775C2.40122 65.3088 3.90656 67.5065 5.81871 69.3296C7.89417 71.2464 10.3426 72.7263 13.0151 73.6794C15.6876 74.6326 18.5284 75.0389 21.3649 74.8739C24.2014 74.7088 26.9742 73.9757 29.5149 72.7192C32.0556 71.4627 34.3111 69.709 36.1443 67.5647L30.5911 61.9124C29.3747 63.4981 27.7952 64.7764 25.9822 65.6428C24.1692 66.5092 22.1742 66.939 20.1606 66.8969" fill="#005EB8"/>
<path d="M250.718 65.5852C250.279 66.2182 249.692 66.7372 249.007 67.0984C248.322 67.4596 247.559 67.6523 246.782 67.6601C246.385 67.6609 245.993 67.5784 245.631 67.418C245.268 67.2577 244.945 67.0231 244.682 66.7299C244.046 65.9869 243.726 65.0297 243.788 64.0588V50.8703H250.211V44.9557H243.788V37.0616L235.434 39.6135V44.9557H227.563V43.7871C227.563 41.5691 228.674 40.5674 230.653 40.5674C231.426 40.6067 232.193 40.7105 232.947 40.8775V33.9374C231.468 33.6427 229.965 33.4831 228.456 33.4604C227.202 33.3787 225.944 33.5478 224.757 33.9576C223.571 34.3674 222.48 35.0095 221.551 35.8453C220.691 36.8221 220.036 37.957 219.621 39.1848C219.207 40.4126 219.042 41.7092 219.136 43.0001V44.9319H214.79V50.8465H219.33V74.4571H227.684V50.8465H235.627V64.4166C235.543 65.7775 235.746 67.1409 236.225 68.4196C236.705 69.6984 237.449 70.8643 238.41 71.8429C239.371 72.8215 240.528 73.5913 241.808 74.103C243.087 74.6147 244.461 74.8572 245.84 74.8148C248.922 74.7214 251.85 73.467 254.025 71.309L250.718 65.5852Z" fill="#005EB8"/>
<path d="M181.712 62.2224C181.777 63.9555 181.43 65.6794 180.701 67.257C179.972 68.8345 178.879 70.222 177.511 71.3089C174.461 73.666 170.661 74.8749 166.791 74.7193C163.725 74.6924 160.684 74.1771 157.785 73.193C154.726 72.2013 151.871 70.6745 149.359 68.6855L154.188 61.9839C157.83 64.926 162.376 66.5575 167.081 66.6106C168.241 66.6784 169.395 66.3956 170.388 65.7997C170.766 65.5736 171.077 65.2548 171.293 64.8745C171.509 64.4943 171.621 64.0654 171.62 63.6295C171.574 63.1052 171.396 62.6009 171.1 62.1631C170.805 61.7254 170.402 61.3684 169.93 61.1253C168.433 60.1901 166.806 59.4751 165.101 59.0027C162.976 58.3349 161.334 57.7626 160.272 57.2856C158.93 56.6964 157.639 56.0026 156.409 55.2107C155.011 54.3983 153.864 53.2255 153.09 51.8181C152.316 50.4106 151.944 48.8215 152.014 47.2212C151.981 45.5419 152.356 43.8791 153.108 42.3727C153.86 40.8662 154.967 39.56 156.336 38.564C159.568 36.225 163.513 35.047 167.515 35.2251C172.442 35.3279 177.22 36.9175 181.205 39.7803L177.173 46.9351C174.256 44.8121 170.751 43.622 167.129 43.5246C163.773 43.5246 162.107 44.4309 162.107 46.2196C162.111 46.7267 162.263 47.2219 162.546 47.6452C162.829 48.0685 163.23 48.4017 163.701 48.6045C165.393 49.4149 167.154 50.0772 168.964 50.584C171.378 51.3471 173.141 51.9434 174.179 52.325C175.468 52.8632 176.711 53.5012 177.898 54.2329C179.251 55.0849 180.342 56.2866 181.052 57.7076C181.763 59.1286 182.067 60.7147 181.93 62.2939" fill="#005EB8"/>
</g>
<path d="M2.46198 100.1H4.73998V105.183H10.673V100.1H12.951V112H10.673V107.172H4.73998V112H2.46198V100.1Z" fill="#005EB8"/>
<path d="M23.7056 102.905V112H21.4786V110.317C20.8666 111.496 19.8126 112.085 18.3166 112.085C17.2966 112.085 16.492 111.773 15.9026 111.15C15.3133 110.527 15.0186 109.677 15.0186 108.6V102.905H17.2456V107.954C17.2456 108.589 17.4156 109.087 17.7556 109.45C18.107 109.813 18.5886 109.994 19.2006 109.994C19.9033 109.983 20.4586 109.733 20.8666 109.246C21.2746 108.759 21.4786 108.141 21.4786 107.393V102.905H23.7056Z" fill="#005EB8"/>
<path d="M37.8809 102.82C38.9122 102.82 39.7226 103.137 40.3119 103.772C40.9012 104.395 41.1959 105.245 41.1959 106.322V112H38.9689V106.968C38.9689 106.322 38.7876 105.818 38.4249 105.455C38.0736 105.081 37.5919 104.894 36.9799 104.894C36.2772 104.917 35.7162 105.172 35.2969 105.659C34.8889 106.146 34.6849 106.764 34.6849 107.512V112H32.4579V106.968C32.4579 106.322 32.2822 105.818 31.9309 105.455C31.5796 105.081 31.0979 104.894 30.4859 104.894C29.7719 104.917 29.2052 105.172 28.7859 105.659C28.3779 106.146 28.1739 106.764 28.1739 107.512V112H25.9639V102.905H28.1739V104.588C28.7746 103.432 29.8399 102.843 31.3699 102.82C32.1632 102.82 32.8262 103.013 33.3589 103.398C33.9029 103.772 34.2826 104.305 34.4979 104.996C35.0759 103.568 36.2036 102.843 37.8809 102.82Z" fill="#005EB8"/>
<path d="M48.5332 112V110.895C48.2158 111.292 47.8078 111.592 47.3092 111.796C46.8105 112 46.2382 112.102 45.5922 112.102C44.9575 112.102 44.3965 111.983 43.9092 111.745C43.4332 111.496 43.0648 111.156 42.8042 110.725C42.5435 110.294 42.4132 109.813 42.4132 109.28C42.4132 108.43 42.7135 107.767 43.3142 107.291C43.9148 106.804 44.7648 106.554 45.8642 106.543H48.5162V106.305C48.5162 105.772 48.3405 105.359 47.9892 105.064C47.6378 104.769 47.1278 104.622 46.4592 104.622C45.5978 104.622 44.6968 104.905 43.7562 105.472L42.9572 103.942C43.6712 103.545 44.3172 103.262 44.8952 103.092C45.4845 102.911 46.1702 102.82 46.9522 102.82C48.1308 102.82 49.0432 103.103 49.6892 103.67C50.3465 104.237 50.6808 105.03 50.6922 106.05L50.7092 112H48.5332ZM46.1192 110.402C46.7538 110.402 47.2978 110.255 47.7512 109.96C48.2045 109.654 48.4595 109.28 48.5162 108.838V108.022H46.2212C45.6318 108.022 45.1955 108.113 44.9122 108.294C44.6402 108.464 44.5042 108.747 44.5042 109.144C44.5042 109.529 44.6458 109.835 44.9292 110.062C45.2238 110.289 45.6205 110.402 46.1192 110.402Z" fill="#005EB8"/>
<path d="M58.1625 102.82C59.2052 102.82 60.0268 103.137 60.6275 103.772C61.2282 104.395 61.5285 105.245 61.5285 106.322V112H59.3015V106.968C59.3015 106.333 59.1202 105.835 58.7575 105.472C58.3948 105.098 57.9018 104.911 57.2785 104.911C56.5418 104.922 55.9582 105.172 55.5275 105.659C55.1082 106.146 54.8985 106.77 54.8985 107.529V112H52.6885V102.905H54.8985V104.605C55.5218 103.438 56.6098 102.843 58.1625 102.82Z" fill="#005EB8"/>
<path d="M74.7088 112L72.6518 108.481C72.5611 108.492 72.4194 108.498 72.2268 108.498H69.5408V112H67.2628V100.1H72.2268C73.7681 100.1 74.9581 100.457 75.7968 101.171C76.6354 101.885 77.0548 102.894 77.0548 104.197C77.0548 105.126 76.8508 105.92 76.4428 106.577C76.0461 107.234 75.4624 107.727 74.6918 108.056L77.3098 112H74.7088ZM69.5408 106.492H72.2268C73.0881 106.492 73.7454 106.305 74.1988 105.931C74.6521 105.557 74.8788 105.002 74.8788 104.265C74.8788 103.54 74.6521 102.996 74.1988 102.633C73.7454 102.27 73.0881 102.089 72.2268 102.089H69.5408V106.492Z" fill="#005EB8"/>
<path d="M82.7539 102.837C84.2046 102.837 85.2926 103.251 86.0179 104.078C86.7546 104.905 87.1229 106.067 87.1229 107.563C87.1229 107.858 87.1172 108.079 87.1059 108.226H80.3909C80.5382 108.872 80.8386 109.382 81.2919 109.756C81.7566 110.119 82.3232 110.3 82.9919 110.3C83.4566 110.3 83.8986 110.215 84.3179 110.045C84.7486 109.864 85.1226 109.609 85.4399 109.28L86.6299 110.521C86.1766 111.02 85.6212 111.405 84.9639 111.677C84.3179 111.949 83.5983 112.085 82.8049 112.085C81.8756 112.085 81.0539 111.892 80.3399 111.507C79.6372 111.122 79.0932 110.583 78.7079 109.892C78.3226 109.189 78.1299 108.385 78.1299 107.478C78.1299 106.571 78.3226 105.767 78.7079 105.064C79.1046 104.361 79.6543 103.817 80.3569 103.432C81.0596 103.035 81.8586 102.837 82.7539 102.837ZM85.0999 106.747C85.0772 106.078 84.8562 105.546 84.4369 105.149C84.0176 104.752 83.4622 104.554 82.7709 104.554C82.1249 104.554 81.5809 104.752 81.1389 105.149C80.7083 105.534 80.4419 106.067 80.3399 106.747H85.0999Z" fill="#005EB8"/>
<path d="M93.9125 105.37C93.4705 105.109 93.0115 104.905 92.5355 104.758C92.0708 104.611 91.6401 104.537 91.2435 104.537C90.8695 104.537 90.5691 104.605 90.3425 104.741C90.1271 104.866 90.0195 105.064 90.0195 105.336C90.0195 105.619 90.1555 105.84 90.4275 105.999C90.7108 106.146 91.1528 106.305 91.7535 106.475C92.3881 106.668 92.9095 106.86 93.3175 107.053C93.7255 107.234 94.0768 107.512 94.3715 107.886C94.6775 108.249 94.8305 108.73 94.8305 109.331C94.8305 110.215 94.4905 110.895 93.8105 111.371C93.1305 111.847 92.2748 112.085 91.2435 112.085C90.5408 112.085 89.8551 111.977 89.1865 111.762C88.5178 111.535 87.9511 111.218 87.4865 110.81L88.2515 109.263C88.6595 109.614 89.1468 109.892 89.7135 110.096C90.2801 110.289 90.8185 110.385 91.3285 110.385C91.7365 110.385 92.0595 110.317 92.2975 110.181C92.5468 110.034 92.6715 109.818 92.6715 109.535C92.6715 109.218 92.5298 108.98 92.2465 108.821C91.9631 108.662 91.5041 108.487 90.8695 108.294C90.2575 108.113 89.7588 107.937 89.3735 107.767C88.9881 107.586 88.6538 107.319 88.3705 106.968C88.0871 106.605 87.9455 106.135 87.9455 105.557C87.9455 104.662 88.2685 103.982 88.9145 103.517C89.5718 103.041 90.3935 102.803 91.3795 102.803C91.9801 102.803 92.5695 102.888 93.1475 103.058C93.7368 103.228 94.2581 103.466 94.7115 103.772L93.9125 105.37Z" fill="#005EB8"/>
<path d="M100.203 102.837C101.143 102.837 101.971 103.03 102.685 103.415C103.41 103.8 103.971 104.344 104.368 105.047C104.776 105.738 104.98 106.537 104.98 107.444C104.98 108.362 104.776 109.172 104.368 109.875C103.971 110.578 103.41 111.122 102.685 111.507C101.971 111.892 101.143 112.085 100.203 112.085C99.2506 112.085 98.412 111.892 97.6866 111.507C96.9613 111.122 96.3946 110.578 95.9866 109.875C95.59 109.172 95.3916 108.362 95.3916 107.444C95.3916 106.537 95.59 105.738 95.9866 105.047C96.3946 104.344 96.9613 103.8 97.6866 103.415C98.412 103.03 99.2506 102.837 100.203 102.837ZM100.203 104.724C99.432 104.724 98.8086 104.979 98.3326 105.489C97.8566 105.999 97.6186 106.662 97.6186 107.478C97.6186 108.294 97.8566 108.957 98.3326 109.467C98.8086 109.977 99.432 110.232 100.203 110.232C100.951 110.232 101.563 109.977 102.039 109.467C102.515 108.957 102.753 108.294 102.753 107.478C102.753 106.662 102.515 105.999 102.039 105.489C101.563 104.979 100.951 104.724 100.203 104.724Z" fill="#005EB8"/>
<path d="M114.797 102.905V112H112.57V110.317C111.958 111.496 110.904 112.085 109.408 112.085C108.388 112.085 107.584 111.773 106.994 111.15C106.405 110.527 106.11 109.677 106.11 108.6V102.905H108.337V107.954C108.337 108.589 108.507 109.087 108.847 109.45C109.199 109.813 109.68 109.994 110.292 109.994C110.995 109.983 111.55 109.733 111.958 109.246C112.366 108.759 112.57 108.141 112.57 107.393V102.905H114.797Z" fill="#005EB8"/>
<path d="M119.266 104.656C119.572 104.067 119.985 103.619 120.507 103.313C121.039 102.996 121.657 102.831 122.36 102.82V104.962C121.419 104.905 120.665 105.126 120.099 105.625C119.543 106.112 119.266 106.775 119.266 107.614V112H117.056V102.905H119.266V104.656Z" fill="#005EB8"/>
<path d="M129.668 105.778C129.056 105.109 128.263 104.775 127.288 104.775C126.551 104.775 125.951 105.024 125.486 105.523C125.033 106.022 124.806 106.668 124.806 107.461C124.806 108.277 125.033 108.934 125.486 109.433C125.951 109.932 126.551 110.181 127.288 110.181C128.376 110.181 129.192 109.824 129.736 109.11L131.113 110.249C130.705 110.838 130.167 111.292 129.498 111.609C128.829 111.926 128.053 112.085 127.169 112.085C126.274 112.085 125.475 111.892 124.772 111.507C124.081 111.122 123.542 110.583 123.157 109.892C122.772 109.189 122.579 108.385 122.579 107.478C122.579 106.56 122.772 105.75 123.157 105.047C123.554 104.344 124.098 103.8 124.789 103.415C125.492 103.03 126.296 102.837 127.203 102.837C128.03 102.837 128.767 102.984 129.413 103.279C130.07 103.562 130.603 103.97 131.011 104.503L129.668 105.778Z" fill="#005EB8"/>
<path d="M135.983 102.837C137.434 102.837 138.522 103.251 139.247 104.078C139.984 104.905 140.352 106.067 140.352 107.563C140.352 107.858 140.347 108.079 140.335 108.226H133.62C133.768 108.872 134.068 109.382 134.521 109.756C134.986 110.119 135.553 110.3 136.221 110.3C136.686 110.3 137.128 110.215 137.547 110.045C137.978 109.864 138.352 109.609 138.669 109.28L139.859 110.521C139.406 111.02 138.851 111.405 138.193 111.677C137.547 111.949 136.828 112.085 136.034 112.085C135.105 112.085 134.283 111.892 133.569 111.507C132.867 111.122 132.323 110.583 131.937 109.892C131.552 109.189 131.359 108.385 131.359 107.478C131.359 106.571 131.552 105.767 131.937 105.064C132.334 104.361 132.884 103.817 133.586 103.432C134.289 103.035 135.088 102.837 135.983 102.837ZM138.329 106.747C138.307 106.078 138.086 105.546 137.666 105.149C137.247 104.752 136.692 104.554 136 104.554C135.354 104.554 134.81 104.752 134.368 105.149C133.938 105.534 133.671 106.067 133.569 106.747H138.329Z" fill="#005EB8"/>
<path d="M150.452 100.1C151.642 100.1 152.707 100.355 153.648 100.865C154.589 101.364 155.325 102.066 155.858 102.973C156.391 103.88 156.657 104.905 156.657 106.05C156.657 107.195 156.385 108.22 155.841 109.127C155.308 110.022 154.566 110.725 153.614 111.235C152.662 111.745 151.58 112 150.367 112H145.505V100.1H150.452ZM150.503 109.994C151.228 109.994 151.88 109.83 152.458 109.501C153.047 109.161 153.506 108.696 153.835 108.107C154.164 107.506 154.328 106.826 154.328 106.067C154.328 105.308 154.158 104.628 153.818 104.027C153.478 103.415 153.008 102.945 152.407 102.616C151.818 102.276 151.155 102.106 150.418 102.106H147.783V109.994H150.503Z" fill="#005EB8"/>
<path d="M161.859 102.837C163.31 102.837 164.398 103.251 165.123 104.078C165.86 104.905 166.228 106.067 166.228 107.563C166.228 107.858 166.223 108.079 166.211 108.226H159.496C159.644 108.872 159.944 109.382 160.397 109.756C160.862 110.119 161.429 110.3 162.097 110.3C162.562 110.3 163.004 110.215 163.423 110.045C163.854 109.864 164.228 109.609 164.545 109.28L165.735 110.521C165.282 111.02 164.727 111.405 164.069 111.677C163.423 111.949 162.704 112.085 161.91 112.085C160.981 112.085 160.159 111.892 159.445 111.507C158.743 111.122 158.199 110.583 157.813 109.892C157.428 109.189 157.235 108.385 157.235 107.478C157.235 106.571 157.428 105.767 157.813 105.064C158.21 104.361 158.76 103.817 159.462 103.432C160.165 103.035 160.964 102.837 161.859 102.837ZM164.205 106.747C164.183 106.078 163.962 105.546 163.542 105.149C163.123 104.752 162.568 104.554 161.876 104.554C161.23 104.554 160.686 104.752 160.244 105.149C159.814 105.534 159.547 106.067 159.445 106.747H164.205Z" fill="#005EB8"/>
<path d="M165.919 102.922L168.231 102.905L170.611 109.824L172.94 102.905H175.167L171.699 112H169.421L165.919 102.922Z" fill="#005EB8"/>
<path d="M179.42 102.837C180.871 102.837 181.959 103.251 182.684 104.078C183.421 104.905 183.789 106.067 183.789 107.563C183.789 107.858 183.783 108.079 183.772 108.226H177.057C177.204 108.872 177.505 109.382 177.958 109.756C178.423 110.119 178.989 110.3 179.658 110.3C180.123 110.3 180.565 110.215 180.984 110.045C181.415 109.864 181.789 109.609 182.106 109.28L183.296 110.521C182.843 111.02 182.287 111.405 181.63 111.677C180.984 111.949 180.264 112.085 179.471 112.085C178.542 112.085 177.72 111.892 177.006 111.507C176.303 111.122 175.759 110.583 175.374 109.892C174.989 109.189 174.796 108.385 174.796 107.478C174.796 106.571 174.989 105.767 175.374 105.064C175.771 104.361 176.32 103.817 177.023 103.432C177.726 103.035 178.525 102.837 179.42 102.837ZM181.766 106.747C181.743 106.078 181.522 105.546 181.103 105.149C180.684 104.752 180.128 104.554 179.437 104.554C178.791 104.554 178.247 104.752 177.805 105.149C177.374 105.534 177.108 106.067 177.006 106.747H181.766Z" fill="#005EB8"/>
<path d="M185.274 99.386H187.484V112H185.274V99.386Z" fill="#005EB8"/>
<path d="M193.797 102.837C194.738 102.837 195.565 103.03 196.279 103.415C197.005 103.8 197.566 104.344 197.962 105.047C198.37 105.738 198.574 106.537 198.574 107.444C198.574 108.362 198.37 109.172 197.962 109.875C197.566 110.578 197.005 111.122 196.279 111.507C195.565 111.892 194.738 112.085 193.797 112.085C192.845 112.085 192.007 111.892 191.281 111.507C190.556 111.122 189.989 110.578 189.581 109.875C189.185 109.172 188.986 108.362 188.986 107.444C188.986 106.537 189.185 105.738 189.581 105.047C189.989 104.344 190.556 103.8 191.281 103.415C192.007 103.03 192.845 102.837 193.797 102.837ZM193.797 104.724C193.027 104.724 192.403 104.979 191.927 105.489C191.451 105.999 191.213 106.662 191.213 107.478C191.213 108.294 191.451 108.957 191.927 109.467C192.403 109.977 193.027 110.232 193.797 110.232C194.545 110.232 195.157 109.977 195.633 109.467C196.109 108.957 196.347 108.294 196.347 107.478C196.347 106.662 196.109 105.999 195.633 105.489C195.157 104.979 194.545 104.724 193.797 104.724Z" fill="#005EB8"/>
<path d="M205.349 102.837C206.199 102.837 206.947 103.035 207.593 103.432C208.25 103.817 208.755 104.361 209.106 105.064C209.469 105.767 209.65 106.577 209.65 107.495C209.65 108.402 209.474 109.201 209.123 109.892C208.772 110.583 208.273 111.122 207.627 111.507C206.981 111.892 206.233 112.085 205.383 112.085C204.703 112.085 204.102 111.955 203.581 111.694C203.06 111.422 202.629 111.031 202.289 110.521V115.298H200.079V102.905H202.289V104.401C202.618 103.891 203.037 103.506 203.547 103.245C204.068 102.973 204.669 102.837 205.349 102.837ZM204.856 110.181C205.604 110.181 206.216 109.926 206.692 109.416C207.168 108.895 207.406 108.232 207.406 107.427C207.406 106.622 207.168 105.965 206.692 105.455C206.216 104.945 205.604 104.69 204.856 104.69C204.097 104.69 203.479 104.945 203.003 105.455C202.527 105.965 202.289 106.622 202.289 107.427C202.289 108.243 202.527 108.906 203.003 109.416C203.479 109.926 204.097 110.181 204.856 110.181Z" fill="#005EB8"/>
<path d="M222.982 102.82C224.014 102.82 224.824 103.137 225.413 103.772C226.003 104.395 226.297 105.245 226.297 106.322V112H224.07V106.968C224.07 106.322 223.889 105.818 223.526 105.455C223.175 105.081 222.693 104.894 222.081 104.894C221.379 104.917 220.818 105.172 220.398 105.659C219.99 106.146 219.786 106.764 219.786 107.512V112H217.559V106.968C217.559 106.322 217.384 105.818 217.032 105.455C216.681 105.081 216.199 104.894 215.587 104.894C214.873 104.917 214.307 105.172 213.887 105.659C213.479 106.146 213.275 106.764 213.275 107.512V112H211.065V102.905H213.275V104.588C213.876 103.432 214.941 102.843 216.471 102.82C217.265 102.82 217.928 103.013 218.46 103.398C219.004 103.772 219.384 104.305 219.599 104.996C220.177 103.568 221.305 102.843 222.982 102.82Z" fill="#005EB8"/>
<path d="M232.054 102.837C233.504 102.837 234.592 103.251 235.318 104.078C236.054 104.905 236.423 106.067 236.423 107.563C236.423 107.858 236.417 108.079 236.406 108.226H229.691C229.838 108.872 230.138 109.382 230.592 109.756C231.056 110.119 231.623 110.3 232.292 110.3C232.756 110.3 233.198 110.215 233.618 110.045C234.048 109.864 234.422 109.609 234.74 109.28L235.93 110.521C235.476 111.02 234.921 111.405 234.264 111.677C233.618 111.949 232.898 112.085 232.105 112.085C231.175 112.085 230.354 111.892 229.64 111.507C228.937 111.122 228.393 110.583 228.008 109.892C227.622 109.189 227.43 108.385 227.43 107.478C227.43 106.571 227.622 105.767 228.008 105.064C228.404 104.361 228.954 103.817 229.657 103.432C230.359 103.035 231.158 102.837 232.054 102.837ZM234.4 106.747C234.377 106.078 234.156 105.546 233.737 105.149C233.317 104.752 232.762 104.554 232.071 104.554C231.425 104.554 230.881 104.752 230.439 105.149C230.008 105.534 229.742 106.067 229.64 106.747H234.4Z" fill="#005EB8"/>
<path d="M243.297 102.82C244.34 102.82 245.162 103.137 245.762 103.772C246.363 104.395 246.663 105.245 246.663 106.322V112H244.436V106.968C244.436 106.333 244.255 105.835 243.892 105.472C243.53 105.098 243.037 104.911 242.413 104.911C241.677 104.922 241.093 105.172 240.662 105.659C240.243 106.146 240.033 106.77 240.033 107.529V112H237.823V102.905H240.033V104.605C240.657 103.438 241.745 102.843 243.297 102.82Z" fill="#005EB8"/>
<path d="M253.967 111.439C253.241 111.881 252.482 112.102 251.689 112.102C250.907 112.102 250.266 111.875 249.768 111.422C249.269 110.957 249.02 110.277 249.02 109.382V104.894H247.745L247.728 103.279H249.02V100.78H251.213V103.279H253.814V104.894H251.213V108.991C251.213 109.41 251.292 109.711 251.451 109.892C251.609 110.062 251.847 110.147 252.165 110.147C252.505 110.147 252.935 110.022 253.457 109.773L253.967 111.439Z" fill="#005EB8"/>
<defs>
<clipPath id="clip0_93_19034">
<rect width="253.905" height="86" fill="white"/>
</clipPath>
</defs>
</svg>
